<svg xmlns="http://www.w3.org/2000/svg" xmlns:xlink="http://www.w3.org/1999/xlink" version="1.1" width="1000" height="1000" viewBox="0 0 1000 1000" xml:space="preserve">
<desc>Created with Fabric.js 3.5.0</desc>
<defs>
</defs>
<rect x="0" y="0" width="100%" height="100%" fill="#ffffff"/>
<g transform="matrix(22.7273 0 0 22.7273 500.0005 500.0005)" id="317664">
<path style="stroke: rgb(158,150,150); stroke-width: 2; stroke-dasharray: none; stroke-linecap: round; stroke-dashoffset: 0; stroke-linejoin: round; stroke-miterlimit: 4; is-custom-font: none; font-file-url: none; fill: none; fill-rule: nonzero; opacity: 1;" vector-effect="non-scaling-stroke" transform=" translate(-21, -21)" d="M 1 36 V 12.25 C 1 9.26631 2.18526 6.40483 4.29505 4.29505 C 6.40483 2.18526 9.26631 1 12.25 1 H 29.75 C 31.2274 1 32.6903 1.29099 34.0552 1.85636 C 35.4201 2.42172 36.6603 3.25039 37.705 4.29505 C 38.7496 5.33971 39.5783 6.5799 40.1436 7.94481 C 40.709 9.30972 41 10.7726 41 12.25 V 29.75 C 41 31.2274 40.709 32.6903 40.1436 34.0552 C 39.5783 35.4201 38.7496 36.6603 37.705 37.705 C 36.6603 38.7496 35.4201 39.5783 34.0552 40.1436 C 32.6903 40.709 31.2274 41 29.75 41 H 6 C 4.67392 41 3.40215 40.4732 2.46447 39.5355 C 1.52678 38.5979 1 37.3261 1 36 V 36 Z" stroke-linecap="round"/>
</g>
<g transform="matrix(37.1358 0 0 37.1358 587.7267 481.8833)" id="662504">
<path style="stroke: rgb(158,150,150); stroke-width: 2; stroke-dasharray: none; stroke-linecap: round; stroke-dashoffset: 0; stroke-linejoin: round; stroke-miterlimit: 4; is-custom-font: none; font-file-url: none; fill: none; fill-rule: nonzero; opacity: 1;" vector-effect="non-scaling-stroke" transform=" translate(-11.0125, -11)" d="M 1 11 H 9.75 C 11.0761 11 12.3479 11.5268 13.2855 12.4645 C 14.2232 13.4021 14.75 14.6739 14.75 16 C 14.75 17.3261 14.2232 18.5979 13.2855 19.5355 C 12.3479 20.4732 11.0761 21 9.75 21 H 1 V 3.5 C 1 2.83696 1.26339 2.20107 1.73223 1.73223 C 2.20107 1.26339 2.83696 1 3.5 1 H 7.25 C 8.57608 1 9.84785 1.52679 10.7855 2.46447 C 11.7232 3.40215 12.25 4.67392 12.25 6 C 12.25 7.32608 11.7232 8.59785 10.7855 9.53553 C 9.84785 10.4732 8.57608 11 7.25 11 H 3.5 M 21 21 H 21.025" stroke-linecap="round"/>
</g>
</svg>