<svg xmlns="http://www.w3.org/2000/svg" xmlns:xlink="http://www.w3.org/1999/xlink" version="1.1" width="250" height="250" viewBox="0 0 250 250" xml:space="preserve">
<desc>Created with Fabric.js 3.5.0</desc>
<defs>
</defs>
<rect x="0" y="0" width="100%" height="100%" fill="#ffffff"/>
<g transform="matrix(1.0026 0 0 1.0026 -18.9225 25.5771)" id="515885">
<g style="">
		<g transform="matrix(1 0 0 1 157.7954 34.7201)" id="533575">
<path style="stroke: none; stroke-width: 1; stroke-dasharray: none; stroke-linecap: butt; stroke-dashoffset: 0; stroke-linejoin: miter; stroke-miterlimit: 4; is-custom-font: none; font-file-url: none; fill: rgb(248,208,72); fill-rule: nonzero; opacity: 1;" vector-effect="non-scaling-stroke" transform=" translate(-41.8577, -6.5744)" d="M 23.1087 0.285156 L 23.2839 0.412109 L 23.1087 0.285156 Z M 60.4315 0.285156 L 60.6068 0.412109 L 60.4315 0.285156 Z M 60.0811 0.412109 L 60.2563 0.539063 L 60.0811 0.412109 Z M 23.8096 0.539063 L 23.9848 0.666016 L 23.8096 0.539063 Z M 59.7306 0.539063 L 59.9059 0.666016 L 59.7306 0.539063 Z M 0.154297 2.18945 L 0.329521 2.31641 L 0.154297 2.18945 Z M 83.3859 2.18945 L 83.5612 2.31641 L 83.3859 2.18945 Z M 29.7672 3.20508 L 29.9425 3.33203 L 29.7672 3.20508 Z M 31.169 3.9668 L 31.3443 4.09375 L 31.169 3.9668 Z M 52.3712 3.9668 L 52.5464 4.09375 L 52.3712 3.9668 Z M 31.3443 4.2207 V 7.26758 C 30.1561 7.07136 27.4259 7.50493 29.1221 8.73782 C 29.6356 9.11119 30.4874 9.19663 31.169 9.29883 C 29.5275 10.7753 25.6559 10.1875 23.2839 10.1875 H 1.38087 V 10.3145 C 2.66036 11.1121 3.59534 11.9487 5.23581 12.4138 C 7.19762 12.9699 9.30692 12.8535 11.3687 12.8535 H 20.8308 H 63.2351 H 72.522 C 74.6507 12.8535 76.8266 12.9626 78.8301 12.3408 C 80.3407 11.8719 81.1906 11.1075 82.3346 10.3145 V 10.1875 H 60.4315 C 58.0595 10.1875 54.1879 10.7753 52.5464 9.29883 C 53.2025 9.18985 54.0821 9.09837 54.5731 8.73645 C 56.2707 7.48516 53.565 7.08973 52.3712 7.26758 V 4.2207 C 48.5895 5.3219 49.2172 7.74632 49.2172 10.1875 H 34.4983 C 34.4983 9.07049 35.0143 7.13204 34.3182 6.125 C 33.7785 5.34404 32.3635 4.64709 31.3443 4.2207 Z" stroke-linecap="round"/>
</g>
		<g transform="matrix(1 0 0 1 157.7953 34.9239)" id="580499">
<path style="stroke: rgb(238,58,62); stroke-width: 1; stroke-dasharray: none; stroke-linecap: butt; stroke-dashoffset: 0; stroke-linejoin: miter; stroke-miterlimit: 4; is-custom-font: none; font-file-url: none; fill: rgb(248,208,72); fill-rule: nonzero; opacity: 1;" vector-effect="non-scaling-stroke" transform=" translate(-7.854, -3.1946)" d="M 14.3914 1.35198 L 14.3914 1.352 C 14.8129 1.76736 14.9474 2.51785 14.9193 3.49366 C 14.9058 3.96287 14.8571 4.4423 14.8096 4.90613 L 14.8069 4.93261 C 14.7806 5.18915 14.7543 5.44561 14.7368 5.68763 H 0.975482 C 0.957634 5.44968 0.93102 5.19681 0.904353 4.94344 C 0.901854 4.91969 0.899353 4.89593 0.89686 4.87218 C 0.846606 4.39357 0.79639 3.89751 0.786784 3.41479 C 0.766773 2.40914 0.931212 1.66033 1.41121 1.27107 L 1.41122 1.27106 C 1.70414 1.03349 2.13941 0.886516 2.68241 0.806511 C 3.21975 0.72734 3.80177 0.721469 4.35269 0.72083 C 5.12041 0.719937 5.88677 0.715617 6.65213 0.711302 C 8.39794 0.70146 10.1385 0.691648 11.8779 0.722605 C 12.3697 0.731363 12.885 0.765934 13.3448 0.867486 C 13.8111 0.970459 14.1673 1.13104 14.3914 1.35198 Z M 1.09627 0.882726 L 1.09641 0.882887 L 1.09627 0.882726 Z" stroke-linecap="round"/>
</g>
		<g transform="matrix(1 0 0 1 -191.9315 -56.8099)" id="92929">
<path style="stroke: none; stroke-width: 1; stroke-dasharray: none; stroke-linecap: butt; stroke-dashoffset: 0; stroke-linejoin: miter; stroke-miterlimit: 4; is-custom-font: none; font-file-url: none; fill: rgb(248,208,72); fill-rule: nonzero; opacity: 1;" vector-effect="non-scaling-stroke" transform=" translate(-10.9987, -15.5391)" d="M 0.134766 0.539062 V 30.5391 H 21.8626 V 0.539062 H 0.134766 Z" stroke-linecap="round"/>
</g>
		<g transform="matrix(1 0 0 1 129.7407 35.3334)" id="120211">
<path style="stroke: rgb(238,58,62); stroke-width: 1; stroke-dasharray: none; stroke-linecap: butt; stroke-dashoffset: 0; stroke-linejoin: miter; stroke-miterlimit: 4; is-custom-font: none; font-file-url: none; fill: rgb(248,208,72); fill-rule: nonzero; opacity: 1;" vector-effect="non-scaling-stroke" transform=" translate(-16.6663, -7.1183)" d="M 29.808 12.0246 C 30.1285 12.2835 30.5195 12.4334 30.8866 12.5355 M 29.808 12.0246 L 30.1166 11.6426 L 29.808 12.0246 C 29.808 12.0246 29.808 12.0246 29.808 12.0246 Z M 29.808 12.0246 C 29.5926 11.8505 29.4157 11.6659 29.3029 11.4652 C 29.1852 11.2556 29.128 11.008 29.2004 10.7527 C 29.2696 10.5089 29.4343 10.3397 29.5911 10.2279 C 29.7487 10.1155 29.9333 10.0353 30.1137 9.9758 C 30.6233 9.80777 31.2959 9.74403 31.8443 9.74455 M 30.8866 12.5355 C 31.1864 12.4413 31.4179 12.3233 31.5872 12.185 C 31.0446 12.0764 30.4983 11.9395 30.1223 11.6357 C 28.8091 10.5748 30.6451 10.2435 31.8443 10.2445 V 9.74455 M 30.8866 12.5355 C 30.8513 12.5466 30.815 12.5574 30.7778 12.5678 C 30.2942 12.7033 29.7029 12.7671 29.0568 12.787 C 28.4137 12.8069 27.7396 12.7829 27.0948 12.7531 C 26.9707 12.7474 26.8472 12.7414 26.7249 12.7354 C 26.2212 12.711 25.74 12.6876 25.3353 12.6876 H 7.63762 C 7.1856 12.6876 6.7101 12.7086 6.24421 12.7292 C 6.09786 12.7357 5.95245 12.7421 5.80902 12.7479 C 5.19883 12.7722 4.61407 12.7845 4.07608 12.743 C 2.98398 12.6587 2.23216 12.3652 1.8452 11.6739 C 0.661808 9.55947 0.72027 7.16437 1.92038 5.23414 C 3.11974 3.30509 5.50122 1.77937 9.07554 1.52044 C 15.4549 1.05829 21.8023 2.70086 27.2387 5.06407 L 27.438 4.60552 M 30.8866 12.5355 L 27.438 4.60552 M 31.8443 9.74455 C 32.0286 9.74472 32.1989 9.75215 32.3443 9.76532 V 7.77607 L 32.1268 7.67103 L 32.1828 7.55514 C 32.0747 7.47237 31.9617 7.39097 31.8443 7.31083 M 31.8443 9.74455 V 7.31083 M 31.8443 7.31083 C 31.3367 6.96442 30.7464 6.64158 30.1133 6.33395 C 29.4169 5.99556 28.6934 5.6868 27.9914 5.38724 C 27.7369 5.27864 27.4852 5.17124 27.2387 5.06407 L 27.438 4.60552 M 31.8443 7.31083 L 27.438 4.60552" stroke-linecap="round"/>
</g>
		<g transform="matrix(1 0 0 1 157.7953 55.043)" id="878938">
<path style="stroke: none; stroke-width: 1; stroke-dasharray: none; stroke-linecap: butt; stroke-dashoffset: 0; stroke-linejoin: miter; stroke-miterlimit: 4; is-custom-font: none; font-file-url: none; fill: rgb(238,58,62); fill-rule: nonzero; opacity: 1;" vector-effect="non-scaling-stroke" transform=" translate(-45, -15.2346)" d="M 4.87359 6.65983 V 23.9646 V 28.0274 C 4.87359 28.6925 4.73427 29.3964 6.11652 29.8482 C 8.0971 30.4954 12.4797 30.1341 14.8614 30.1341 H 37.6406 V 6.65983 H 34.1361 V 0.415075 C 26.6617 0.415075 19.1812 0.452995 11.7073 0.414775 C 8.86695 0.400254 4.74019 -0.0271735 2.06999 0.488056 C -0.264811 0.938581 0.142524 2.07302 0.142524 2.97317 C 0.142524 4.08436 -0.817408 6.05853 2.24522 6.57345 C 3.05695 6.70994 4.01917 6.65983 4.87359 6.65983 Z M 55.8639 0.415075 V 6.65983 H 52.3594 V 30.1341 H 75.1386 C 77.5203 30.1341 81.903 30.4954 83.8836 29.8482 C 85.2657 29.3964 85.1264 28.6925 85.1264 28.0274 V 23.9646 V 6.65983 C 85.9808 6.65983 86.9431 6.70994 87.7548 6.57345 C 90.8174 6.05853 89.8575 4.08436 89.8575 2.97317 C 89.8575 2.07302 90.2649 0.938581 87.93 0.488056 C 85.2598 -0.0271735 81.1331 0.400254 78.2927 0.414775 C 70.8188 0.452995 63.3385 0.415075 55.8639 0.415075 Z" stroke-linecap="round"/>
</g>
		<g transform="matrix(1 0 0 1 185.7224 35.2967)" id="203325">
<path style="stroke: rgb(238,58,62); stroke-width: 1; stroke-dasharray: none; stroke-linecap: butt; stroke-dashoffset: 0; stroke-linejoin: miter; stroke-miterlimit: 4; is-custom-font: none; font-file-url: none; fill: rgb(248,208,72); fill-rule: nonzero; opacity: 1;" vector-effect="non-scaling-stroke" transform=" translate(-16.2217, -7.088)" d="M 2.8909 12.0207 L 2.89093 12.0207 C 3.27583 11.7026 3.63123 11.2668 3.49271 10.7551 C 3.42672 10.5113 3.26534 10.3408 3.1092 10.2276 C 2.95311 10.1144 2.77006 10.0341 2.59184 9.97497 C 2.07813 9.80452 1.39556 9.74391 0.842516 9.74632 L 0.713 7.40041 C 1.15228 7.18972 1.58814 6.97865 2.02218 6.76846 C 5.14776 5.25483 8.17898 3.7869 11.7144 2.83904 C 14.0626 2.20946 16.8949 1.62065 19.7077 1.43527 C 22.5277 1.24942 25.2841 1.47226 27.5082 2.42769 C 29.3108 3.20202 30.4589 4.35066 31.0949 5.63459 C 31.7333 6.92334 31.8714 8.38071 31.5953 9.79072 L 31.5953 9.79074 C 31.5095 10.2293 31.3675 10.81 31.1305 11.3455 C 30.8897 11.8896 30.5781 12.325 30.1888 12.5522 C 30.0392 12.6395 29.7753 12.7134 29.39 12.7567 C 29.0164 12.7986 28.5791 12.8068 28.1188 12.7972 C 27.6598 12.7877 27.192 12.7609 26.7564 12.7358 L 26.7429 12.7351 C 26.3192 12.7107 25.9163 12.6876 25.6029 12.6876 H 12.6363 H 4.05025 C 3.92713 12.6876 3.80656 12.6882 3.68849 12.6889 C 3.11848 12.6921 2.60634 12.695 2.1429 12.6201 C 2.0122 12.599 1.89027 12.5723 1.77671 12.539 C 2.15026 12.4389 2.56412 12.2907 2.8909 12.0207 Z" stroke-linecap="round"/>
</g>
		<g transform="matrix(1.1573 0 0 1.0399 157.7952 56.2123)" id="441642">
<path style="stroke: none; stroke-width: 1; stroke-dasharray: none; stroke-linecap: butt; stroke-dashoffset: 0; stroke-linejoin: miter; stroke-miterlimit: 4; is-custom-font: none; font-file-url: none; fill: rgb(248,208,72); fill-rule: nonzero; opacity: 1;" vector-effect="non-scaling-stroke" transform=" translate(-10.9987, -15.5391)" d="M 0.134766 0.539062 V 30.5391 H 21.8626 V 0.539062 H 0.134766 Z" stroke-linecap="round"/>
</g>
</g>
</g>
<g transform="matrix(3.6943 0 0 1 139.3446 107.9235)" id="600910">
<path style="stroke: none; stroke-width: 1; stroke-dasharray: none; stroke-linecap: butt; stroke-dashoffset: 0; stroke-linejoin: miter; stroke-miterlimit: 4; is-custom-font: none; font-file-url: none; fill: rgb(238,58,62); fill-rule: nonzero; opacity: 1;" vector-effect="non-scaling-stroke" transform=" translate(-10.9987, -15.5391)" d="M 0.134766 0.539062 V 30.5391 H 21.8626 V 0.539062 H 0.134766 Z" stroke-linecap="round"/>
</g>
</svg>