<svg xmlns="http://www.w3.org/2000/svg" xmlns:xlink="http://www.w3.org/1999/xlink" version="1.1" width="50" height="50" viewBox="0 0 50 50" xml:space="preserve">
<desc>Created with Fabric.js 3.5.0</desc>
<defs>
</defs>
<rect x="0" y="0" width="100%" height="100%" fill="#ffffff"/>
<g transform="matrix(1 0 0 1 25 25)" id="492215">
<g style="" vector-effect="non-scaling-stroke">
		<g transform="matrix(1 0 0 1 0 -0.1392)">
<path style="stroke: none; stroke-width: 1; stroke-dasharray: none; stroke-linecap: butt; stroke-dashoffset: 0; stroke-linejoin: miter; stroke-miterlimit: 4; is-custom-font: none; font-file-url: none; fill: rgb(217,217,217); fill-rule: nonzero; opacity: 1;" transform=" translate(-18, -15.8608)" d="M 21.2 29.7217 C 27.2336 29.7217 30.2512 29.7217 32.1248 27.6911 C 34 25.6622 34 22.3945 34 15.8609 C 34 9.3272 34 6.0595 32.1248 4.03062 C 30.2512 2 27.2336 2 21.2 2 H 14.8 C 8.7664 2 5.7488 2 3.8752 4.03062 C 2 6.0595 2 9.3272 2 15.8609 C 2 22.3945 2 25.6622 3.8752 27.6911 C 4.92 28.8242 6.32 29.325 8.4 29.545" stroke-linecap="round"/>
</g>
		<g transform="matrix(1 0 0 1 0 -0.1392)">
<path style="stroke: rgb(0,0,0); stroke-width: 3; stroke-dasharray: none; stroke-linecap: round; stroke-dashoffset: 0; stroke-linejoin: round; stroke-miterlimit: 4; is-custom-font: none; font-file-url: none; fill: none; fill-rule: nonzero; opacity: 1;" transform=" translate(-18, -15.8608)" d="M 21.2 29.7217 C 27.2336 29.7217 30.2512 29.7217 32.1248 27.6911 C 34 25.6622 34 22.3945 34 15.8609 C 34 9.3272 34 6.0595 32.1248 4.03062 C 30.2512 2 27.2336 2 21.2 2 H 14.8 C 8.7664 2 5.7488 2 3.8752 4.03062 C 2 6.0595 2 9.3272 2 15.8609 C 2 22.3945 2 25.6622 3.8752 27.6911 C 4.92 28.8242 6.32 29.325 8.4 29.545" stroke-linecap="round"/>
</g>
</g>
</g>
<g transform="matrix(1 0 0 1 24 40)" id="793375">
<g style="" vector-effect="non-scaling-stroke">
		<g transform="matrix(1 0 0 1 0.0467 0.0614)">
<path style="stroke: none; stroke-width: 1; stroke-dasharray: none; stroke-linecap: butt; stroke-dashoffset: 0; stroke-linejoin: miter; stroke-miterlimit: 4; is-custom-font: none; font-file-url: none; fill: rgb(217,217,217); fill-rule: nonzero; opacity: 1;" transform=" translate(-8.0467, -5.5614)" d="M 14.2008 4.72171 C 12.2232 4.72171 10.044 5.58802 8.05518 6.70555 C 4.85838 8.50226 3.25998 9.40149 2.47278 8.828 C 1.68558 8.25623 1.83438 6.48031 2.13358 2.9302 L 2.20078 2.1228" stroke-linecap="round"/>
</g>
		<g transform="matrix(1 0 0 1 0.0467 0.0614)">
<path style="stroke: rgb(0,0,0); stroke-width: 3; stroke-dasharray: none; stroke-linecap: round; stroke-dashoffset: 0; stroke-linejoin: miter; stroke-miterlimit: 4; is-custom-font: none; font-file-url: none; fill: none; fill-rule: nonzero; opacity: 1;" transform=" translate(-8.0467, -5.5614)" d="M 14.2008 4.72171 C 12.2232 4.72171 10.044 5.58802 8.05518 6.70555 C 4.85838 8.50226 3.25998 9.40149 2.47278 8.828 C 1.68558 8.25623 1.83438 6.48031 2.13358 2.9302 L 2.20078 2.1228" stroke-linecap="round"/>
</g>
</g>
</g>
</svg>